<?xml version="1.0" encoding="UTF-8" standalone="no"?>
<svg
   xmlns:dc="http://purl.org/dc/elements/1.1/"
   xmlns:cc="http://creativecommons.org/ns#"
   xmlns:rdf="http://www.w3.org/1999/02/22-rdf-syntax-ns#"
   xmlns:svg="http://www.w3.org/2000/svg"
   xmlns="http://www.w3.org/2000/svg"
   id="svg8"
   version="1.1"
   viewBox="0 0 19.84375 5.2916666"
   height="20"
   width="75">
  <defs
     id="defs2" />
  <metadata
     id="metadata5">
    <rdf:RDF>
      <cc:Work
         rdf:about="">
        <dc:format>image/svg+xml</dc:format>
        <dc:type
           rdf:resource="http://purl.org/dc/dcmitype/StillImage" />
        <dc:title></dc:title>
      </cc:Work>
    </rdf:RDF>
  </metadata>
  <g
     transform="translate(-18.445251,-135.67977)"
     id="layer1">
    <g
       transform="matrix(0.3184927,0,0,0.3184927,11.845862,96.71447)"
       id="g3708">
      <text
         xml:space="preserve"
         style="font-style:normal;font-variant:normal;font-weight:normal;font-stretch:normal;font-size:10.58333302px;line-height:6.61458302px;font-family:Calibri;-inkscape-font-specification:'Calibri, Normal';font-variant-ligatures:normal;font-variant-caps:normal;font-variant-numeric:normal;font-feature-settings:normal;text-align:start;letter-spacing:0px;word-spacing:0px;writing-mode:lr-tb;text-anchor:start;fill:#2b1100;fill-opacity:1;stroke:none;stroke-width:0.26458332"
         x="37.797619"
         y="135.22618"
         id="text3682"><tspan
           id="tspan3680"
           x="37.797619"
           y="135.22618"
           style="font-style:normal;font-variant:normal;font-weight:normal;font-stretch:normal;font-size:10.58333302px;font-family:Calibri;-inkscape-font-specification:'Calibri, Normal';font-variant-ligatures:normal;font-variant-caps:normal;font-variant-numeric:normal;font-feature-settings:normal;text-align:start;writing-mode:lr-tb;text-anchor:start;fill:#2b1100;stroke-width:0.26458332">STEAMLIB</tspan></text>
      <path
         style="fill:#280b0b;stroke-width:0.03942172"
         d="m 23.262461,138.94063 c -1.280861,-0.28068 -2.274955,-1.20516 -2.678098,-2.49058 l -0.108893,-0.3472 -0.01226,-5.02627 c -0.0089,-3.65188 1.54e-4,-5.10561 0.03314,-5.31644 0.130991,-0.83737 0.569949,-1.61484 1.221307,-2.16315 0.352935,-0.29709 0.945442,-0.60137 1.418781,-0.72861 l 0.335085,-0.0901 h 5.085402 5.085402 l 0.346964,0.0884 c 1.256424,0.32026 2.180829,1.20806 2.577979,2.47591 l 0.11053,0.35285 0.0119,4.98685 c 0.0085,3.547 -9.27e-4,5.07791 -0.03254,5.30222 -0.110587,0.78474 -0.472657,1.48066 -1.064581,2.04618 -0.430045,0.41086 -0.88997,0.6695 -1.595463,0.89718 -0.241958,0.0781 -10.381509,0.0901 -10.73466,0.0127 z m 6.260294,-3.35612 c 0.576641,-0.1891 1.055586,-0.60739 1.334547,-1.16554 0.09053,-0.18113 0.184257,-0.44195 0.210408,-0.58551 l 0.04716,-0.25889 0.573849,-0.39111 0.573848,-0.39111 -0.235317,-0.0297 c -0.655205,-0.0827 -1.345282,-0.44461 -1.840978,-0.96558 -0.433901,-0.45603 -0.684436,-0.94639 -0.814793,-1.59475 l -0.06877,-0.34206 -0.373053,0.59583 -0.373053,0.59583 -0.275789,0.0696 -0.27579,0.0696 -1.051982,-0.69789 -1.051982,-0.6979 -0.04423,-0.25272 c -0.233238,-1.33273 -1.551649,-2.19054 -2.854581,-1.85731 -0.432548,0.11063 -0.747499,0.2912 -1.074054,0.61578 -0.447071,0.44437 -0.683998,1.00975 -0.683998,1.63223 0,0.38206 0.0613,0.6381 0.245411,1.02496 0.191487,0.40238 0.581724,0.81357 0.964286,1.01608 0.509673,0.2698 1.145532,0.34976 1.677637,0.21097 l 0.26579,-0.0693 1.035127,0.69249 1.035128,0.69249 0.02447,0.21682 c 0.05449,0.48266 0.305873,0.97302 0.685116,1.33639 0.641575,0.61472 1.497815,0.80829 2.345592,0.53028 z m -1.22601,-0.46942 c -0.282366,-0.087 -0.549519,-0.25153 -0.766211,-0.47196 -0.199272,-0.20271 -0.452631,-0.62236 -0.404689,-0.6703 0.0141,-0.0141 0.272437,0.14139 0.574089,0.34553 0.626219,0.42379 0.781631,0.48178 1.222822,0.45624 0.522418,-0.0302 0.928083,-0.3003 1.16031,-0.77243 0.119093,-0.24213 0.129536,-0.29376 0.129154,-0.63853 -7.13e-4,-0.64423 -0.181747,-0.89826 -1.015868,-1.42546 -0.503237,-0.31808 -0.51645,-0.32985 -0.384127,-0.34243 0.197329,-0.0187 0.65627,0.10253 0.892461,0.23583 0.277016,0.15633 0.586907,0.49485 0.725007,0.79197 0.468037,1.00696 -0.05648,2.17901 -1.115966,2.49364 -0.247677,0.0736 -0.774904,0.0725 -1.016982,-0.002 z m -4.923779,-3.39435 c -0.585212,-0.0907 -1.123362,-0.45284 -1.356235,-0.91272 -0.527418,-1.04154 -0.04812,-2.244 1.029273,-2.58222 0.889819,-0.27934 1.894706,0.19566 2.215863,1.0474 0.03673,0.0974 -0.0066,0.0768 -0.421354,-0.20113 -0.574001,-0.38456 -0.743686,-0.47181 -1.01513,-0.52199 -0.264282,-0.0489 -0.624152,0.009 -0.88719,0.14206 -0.254717,0.12908 -0.565305,0.48064 -0.670033,0.75843 -0.121022,0.321 -0.09754,0.80874 0.05307,1.10222 0.164439,0.32042 0.302766,0.44967 0.853755,0.7977 0.281958,0.17809 0.522726,0.34011 0.53504,0.36004 0.02194,0.0355 -0.141798,0.0405 -0.337062,0.0102 z m 9.890942,0.81233 c 0.940714,-0.15264 1.799714,-0.75686 2.274102,-1.5996 0.675748,-1.20044 0.491778,-2.72284 -0.450267,-3.72605 -0.469045,-0.49951 -0.967737,-0.79114 -1.618998,-0.94679 -0.451439,-0.10789 -1.221311,-0.0869 -1.639819,0.0447 -0.804902,0.25314 -1.484693,0.80828 -1.887293,1.54124 -0.277262,0.50476 -0.381697,0.93687 -0.382157,1.58121 -0.0011,1.4739 1.060056,2.76668 2.533451,3.08659 0.302247,0.0656 0.829797,0.074 1.170981,0.0187 z m -0.863367,-1.10384 c -0.345728,-0.0591 -0.813653,-0.31164 -1.090528,-0.58852 -0.411748,-0.41174 -0.604606,-0.87722 -0.604606,-1.45926 0,-0.80339 0.432987,-1.50627 1.145978,-1.86029 1.761667,-0.87474 3.645705,0.99702 2.781941,2.76381 -0.398392,0.81489 -1.33925,1.29707 -2.232785,1.14426 z"
         id="path3703" />
    </g>
    <flowRoot
       transform="scale(0.26458333)"
       style="font-style:normal;font-weight:normal;font-size:40px;line-height:25px;font-family:sans-serif;letter-spacing:0px;word-spacing:0px;fill:#000000;fill-opacity:1;stroke:none"
       id="flowRoot3695"
       xml:space="preserve"><flowRegion
         id="flowRegion3697"><rect
           y="685.37683"
           x="551.42859"
           height="142.85715"
           width="277.14285"
           id="rect3699" /></flowRegion><flowPara
         id="flowPara3701"></flowPara></flowRoot>  </g>
</svg>
